HIERARCHY
ROOT Hips
{
	OFFSET 0.000000 103.266502 0.000000
	CHANNELS 6 Xposition Yposition Zposition Xrotation Yrotation Zrotation 
	JOINT Spine
	{
		OFFSET -0.002400 12.777504 0.315300
		CHANNELS 3 Xrotation Yrotation Zrotation
		JOINT Spine1
		{
			OFFSET -0.002067 5.816869 0.032633
			CHANNELS 3 Xrotation Yrotation Zrotation
			JOINT Spine1_split
			{
				OFFSET -0.002067 5.816869 0.032633
				CHANNELS 3 Xrotation Yrotation Zrotation
				JOINT Spine2
				{
					OFFSET -0.002067 5.816869 0.032633
					CHANNELS 3 Xrotation Yrotation Zrotation
					JOINT Neck
					{
						OFFSET -0.003700 21.199493 -0.826900
						CHANNELS 3 Xrotation Yrotation Zrotation
						JOINT Head
						{
							OFFSET 0.000000 20.442200 4.834800
							CHANNELS 3 Xrotation Yrotation Zrotation
							JOINT HeadTop_End
							{
								OFFSET 0.000000 34.668396 4.968400
								CHANNELS 3 Xrotation Yrotation Zrotation
								End Site
								{
									OFFSET 0.000000 0.000000 0.000000
								}
							}
						}
					}
					JOINT LeftShoulder
					{
						OFFSET 3.288150 8.794197 -1.372250
						CHANNELS 3 Xrotation Yrotation Zrotation
						JOINT LeftShoulder_split
						{
							OFFSET 3.288150 8.794197 -1.372250
							CHANNELS 3 Xrotation Yrotation Zrotation
							JOINT LeftArm
							{
								OFFSET 11.953299 -2.279007 -0.146200
								CHANNELS 3 Xrotation Yrotation Zrotation
								JOINT LeftForeArm
								{
									OFFSET 18.448900 0.000000 0.000000
									CHANNELS 3 Xrotation Yrotation Zrotation
									JOINT LeftHand
									{
										OFFSET 29.527798 0.000000 0.000000
										CHANNELS 3 Xrotation Yrotation Zrotation
										JOINT LeftHandThumb1
										{
											OFFSET 10.739754 -2.369614 9.225399
											CHANNELS 3 Xrotation Yrotation Zrotation
											JOINT LeftHandThumb2
											{
												OFFSET 4.926170 -2.844131 2.844125
												CHANNELS 3 Xrotation Yrotation Zrotation
												JOINT LeftHandThumb3
												{
													OFFSET 4.614891 -2.664413 2.664409
													CHANNELS 3 Xrotation Yrotation Zrotation
													JOINT LeftHandThumb4
													{
														OFFSET 4.432465 -2.559082 2.559083
														CHANNELS 3 Xrotation Yrotation Zrotation
														End Site
														{
															OFFSET 0.000000 0.000000 0.000000
														}
													}
												}
											}
										}
										JOINT LeftHandIndex1
										{
											OFFSET 26.467674 0.187653 6.405298
											CHANNELS 3 Xrotation Yrotation Zrotation
											JOINT LeftHandIndex2
											{
												OFFSET 8.792900 0.000000 0.000000
												CHANNELS 3 Xrotation Yrotation Zrotation
												JOINT LeftHandIndex3
												{
													OFFSET 10.075203 0.000000 0.000000
													CHANNELS 3 Xrotation Yrotation Zrotation
													End Site
													{
														OFFSET 0.000000 0.000000 0.000000
													}
												}
											}
										}
										JOINT LeftHandMiddle1
										{
											OFFSET 25.764404 0.000000 0.000000
											CHANNELS 3 Xrotation Yrotation Zrotation
											JOINT LeftHandMiddle2
											{
												OFFSET 9.393974 0.000000 0.000000
												CHANNELS 3 Xrotation Yrotation Zrotation
												JOINT LeftHandMiddle3
												{
													OFFSET 10.771950 0.000000 0.000000
													CHANNELS 3 Xrotation Yrotation Zrotation
													End Site
													{
														OFFSET 0.000000 0.000000 0.000000
													}
												}
											}
										}
										JOINT LeftHandRing1
										{
											OFFSET 24.660927 0.144547 -6.225808
											CHANNELS 3 Xrotation Yrotation Zrotation
											JOINT LeftHandRing2
											{
												OFFSET 9.393799 0.000000 0.000000
												CHANNELS 3 Xrotation Yrotation Zrotation
												JOINT LeftHandRing3
												{
													OFFSET 9.928497 0.000000 0.000000
													CHANNELS 3 Xrotation Yrotation Zrotation
													End Site
													{
														OFFSET 0.000000 0.000000 0.000000
													}
												}
											}
										}
										JOINT LeftHandPinky1
										{
											OFFSET 23.655350 0.125290 -12.815412
											CHANNELS 3 Xrotation Yrotation Zrotation
											JOINT LeftHandPinky2
											{
												OFFSET 8.425102 0.000000 0.000000
												CHANNELS 3 Xrotation Yrotation Zrotation
												JOINT LeftHandPinky3
												{
													OFFSET 8.147003 0.000000 0.000000
													CHANNELS 3 Xrotation Yrotation Zrotation
													End Site
													{
														OFFSET 0.000000 0.000000 0.000000
													}
												}
											}
										}
									}
								}
							}
						}
					}
					JOINT RightShoulder
					{
						OFFSET -3.249400 8.794197 -1.372250
						CHANNELS 3 Xrotation Yrotation Zrotation
						JOINT RightShoulder_split
						{
							OFFSET -3.249400 8.794197 -1.372250
							CHANNELS 3 Xrotation Yrotation Zrotation
							JOINT RightArm
							{
								OFFSET -11.953299 -2.279007 -0.146200
								CHANNELS 3 Xrotation Yrotation Zrotation
								JOINT RightForeArm
								{
									OFFSET -18.448900 0.000000 0.000000
									CHANNELS 3 Xrotation Yrotation Zrotation
									JOINT RightHand
									{
										OFFSET -29.527802 0.000000 0.000000
										CHANNELS 3 Xrotation Yrotation Zrotation
										JOINT RightHandThumb1
										{
											OFFSET -10.739754 -2.369614 9.225399
											CHANNELS 3 Xrotation Yrotation Zrotation
											JOINT RightHandThumb2
											{
												OFFSET -4.926170 -2.844131 2.844125
												CHANNELS 3 Xrotation Yrotation Zrotation
												JOINT RightHandThumb3
												{
													OFFSET -4.614891 -2.664413 2.664409
													CHANNELS 3 Xrotation Yrotation Zrotation
													JOINT RightHandThumb4
													{
														OFFSET -4.432465 -2.559082 2.559083
														CHANNELS 3 Xrotation Yrotation Zrotation
														End Site
														{
															OFFSET 0.000000 0.000000 0.000000
														}
													}
												}
											}
										}
										JOINT RightHandIndex1
										{
											OFFSET -26.467674 0.187653 6.405298
											CHANNELS 3 Xrotation Yrotation Zrotation
											JOINT RightHandIndex2
											{
												OFFSET -8.792900 0.000000 0.000000
												CHANNELS 3 Xrotation Yrotation Zrotation
												JOINT RightHandIndex3
												{
													OFFSET -10.075203 0.000000 0.000000
													CHANNELS 3 Xrotation Yrotation Zrotation
													End Site
													{
														OFFSET 0.000000 0.000000 0.000000
													}
												}
											}
										}
										JOINT RightHandMiddle1
										{
											OFFSET -25.764404 0.000000 0.000000
											CHANNELS 3 Xrotation Yrotation Zrotation
											JOINT RightHandMiddle2
											{
												OFFSET -9.393974 0.000000 0.000000
												CHANNELS 3 Xrotation Yrotation Zrotation
												JOINT RightHandMiddle3
												{
													OFFSET -10.771950 0.000000 0.000000
													CHANNELS 3 Xrotation Yrotation Zrotation
													End Site
													{
														OFFSET 0.000000 0.000000 0.000000
													}
												}
											}
										}
										JOINT RightHandRing1
										{
											OFFSET -24.660927 0.144547 -6.225808
											CHANNELS 3 Xrotation Yrotation Zrotation
											JOINT RightHandRing2
											{
												OFFSET -9.393799 0.000000 0.000000
												CHANNELS 3 Xrotation Yrotation Zrotation
												JOINT RightHandRing3
												{
													OFFSET -9.928497 0.000000 0.000000
													CHANNELS 3 Xrotation Yrotation Zrotation
													End Site
													{
														OFFSET 0.000000 0.000000 0.000000
													}
												}
											}
										}
										JOINT RightHandPinky1
										{
											OFFSET -23.655350 0.125290 -12.815412
											CHANNELS 3 Xrotation Yrotation Zrotation
											JOINT RightHandPinky2
											{
												OFFSET -8.425102 0.000000 0.000000
												CHANNELS 3 Xrotation Yrotation Zrotation
												JOINT RightHandPinky3
												{
													OFFSET -8.147003 0.000000 0.000000
													CHANNELS 3 Xrotation Yrotation Zrotation
													End Site
													{
														OFFSET 0.000000 0.000000 0.000000
													}
												}
											}
										}
									}
								}
							}
						}
					}
				}
			}
		}
	}
	JOINT LeftUpLeg
	{
		OFFSET 11.394100 -6.187798 -0.413800
		CHANNELS 3 Xrotation Yrotation Zrotation
		JOINT LeftLeg
		{
			OFFSET 0.430247 -32.302673 3.732800
			CHANNELS 3 Xrotation Yrotation Zrotation
			JOINT LeftFoot
			{
				OFFSET -0.430247 -48.264931 -6.423300
				CHANNELS 3 Xrotation Yrotation Zrotation
				JOINT LeftToeBase
				{
					OFFSET 4.230900 -16.068199 23.438400
					CHANNELS 3 Xrotation Yrotation Zrotation
					JOINT LeftToe_End
					{
						OFFSET 4.510700 0.695400 19.974600
						CHANNELS 3 Xrotation Yrotation Zrotation
						End Site
						{
							OFFSET 0.000000 0.000000 0.000000
						}
					}
				}
			}
		}
	}
	JOINT RightUpLeg
	{
		OFFSET -11.333700 -6.187798 -0.413800
		CHANNELS 3 Xrotation Yrotation Zrotation
		JOINT RightLeg
		{
			OFFSET -0.430392 -32.302628 3.733000
			CHANNELS 3 Xrotation Yrotation Zrotation
			JOINT RightFoot
			{
				OFFSET 0.430392 -48.264973 -6.423500
				CHANNELS 3 Xrotation Yrotation Zrotation
				JOINT RightToeBase
				{
					OFFSET -4.230900 -16.068199 23.438400
					CHANNELS 3 Xrotation Yrotation Zrotation
					JOINT RightToe_End
					{
						OFFSET -4.510700 0.695400 19.974600
						CHANNELS 3 Xrotation Yrotation Zrotation
						End Site
						{
							OFFSET 0.000000 0.000000 0.000000
						}
					}
				}
			}
		}
	}
}
MOTION
Frames: 5
Frame Time: 0.016667
-2.787857 96.949486 -2.340174 1.780180 -44.830510 4.870537 6.692058 0.759297 -0.908647 -0.557033 1.560411 -1.610233 0.000000 0.000000 0.000000 -0.534578 1.560481 -1.609754 -19.005370 -1.508389 20.421622 -4.556861 11.720421 -16.000784 -0.000001 -0.000000 -0.000001 -8.631162 -5.317966 -15.297515 0.000000 0.000000 0.000000 0.075341 -2.626982 -31.066822 42.317482 -37.063342 15.465970 -23.800364 3.779288 5.091198 7.895963 12.754512 1.888098 -2.399868 10.098191 -6.912123 -0.568293 -1.710782 -0.126060 -0.000001 0.000001 0.000000 10.366012 -5.431317 -20.260057 0.012389 0.242530 -14.888680 -0.000000 -0.000001 -0.000001 8.099313 -3.521124 -16.129435 0.036832 0.594726 -11.734518 0.000001 0.000002 -0.000003 7.437960 -2.616145 -14.483976 -0.036253 0.187728 -10.043042 0.000001 0.000001 -0.000003 6.501849 -1.624407 -10.619922 -0.001464 0.148116 -9.427957 0.000001 0.000001 -0.000002 -0.620555 15.164821 -23.726493 0.000000 0.000000 0.000000 -69.097069 11.570652 13.062487 113.321608 148.813757 -130.632518 -14.646398 20.622255 10.268469 0.299577 -0.474256 0.374523 -3.620647 -7.484582 8.065542 -7.732041 18.632377 10.285509 -0.000001 -0.000002 -0.000001 10.001358 7.473616 21.241243 -0.008299 -0.266162 15.389794 0.000002 0.000003 -0.000003 6.820059 4.437959 24.757429 0.121746 -0.593759 18.466434 -0.000000 0.000000 0.000000 4.875294 1.715980 32.191928 -0.003216 -0.241526 22.203673 0.000000 0.000001 -0.000000 3.061669 -1.343062 39.368032 0.068273 -0.198054 27.160239 0.000000 -0.000001 0.000000 -23.088541 7.517460 11.164445 12.875008 -8.019310 3.944231 7.537317 -2.947214 -17.522707 -0.682242 1.033306 1.622972 -0.000000 -0.000003 -0.000000 -13.468675 -5.802253 -16.252645 24.395018 -11.803731 -8.045398 -8.334376 -5.148986 21.755705 -3.009359 -0.947813 -1.024251 -0.000000 -0.000002 0.000000 
-2.220760 96.749023 -2.403774 1.867230 -45.783110 5.090245 6.828377 0.774810 -0.836829 -0.284722 1.586128 -1.496924 0.000000 0.000000 0.000000 -0.262263 1.586190 -1.496445 -19.292207 0.711464 20.367006 -3.643172 13.440631 -15.407659 -0.000002 -0.000000 0.000000 -8.545907 -5.440087 -14.847629 0.000000 0.000000 0.000000 0.040952 -2.007579 -31.692197 42.522504 -37.721185 16.179332 -23.412171 3.306865 4.559603 7.803308 12.376369 1.963679 -2.337371 10.219256 -6.846306 -0.549672 -1.671629 -0.089626 0.000000 -0.000001 -0.000002 10.515334 -5.092617 -20.325951 0.011419 0.243631 -15.207512 -0.000000 -0.000001 0.000000 8.128688 -3.265503 -16.334843 0.039432 0.596856 -12.096715 0.000000 -0.000001 -0.000002 7.412082 -2.391976 -14.908250 -0.036556 0.190011 -10.461716 0.000000 -0.000001 0.000000 6.330473 -1.420193 -11.092615 0.000938 0.151182 -10.093318 -0.000000 0.000000 -0.000000 -1.211229 15.565853 -20.539011 0.000000 0.000000 0.000000 -65.286363 12.486784 13.348859 113.302306 142.450780 -129.003791 -15.346284 19.991250 10.507287 0.841604 -1.185479 0.646264 -3.543945 -7.625420 7.985593 -7.479428 18.180128 9.940031 -0.000001 0.000001 0.000001 10.272585 7.143726 23.988113 -0.006350 -0.268640 17.205515 -0.000001 0.000002 0.000001 6.758863 4.033181 27.064514 0.133521 -0.599018 20.307597 -0.000001 -0.000001 -0.000001 4.642738 1.320726 34.431759 -0.002026 -0.250328 23.879673 0.000001 0.000001 0.000000 2.590317 -1.663340 41.407417 0.074434 -0.202436 28.788861 0.000000 -0.000000 -0.000000 -23.640717 7.583414 11.413065 13.794131 -7.291977 3.549267 7.079946 -2.858828 -17.384848 -0.494924 1.041982 1.287126 -0.000000 0.000001 0.000000 -14.692037 -5.359885 -16.445861 25.195043 -11.037244 -8.500833 -8.153409 -5.013785 21.955831 -2.472744 -0.956134 -1.031971 0.000000 -0.000001 0.000000 
-1.659834 96.538193 -2.469800 1.966240 -46.729784 5.322701 6.986034 0.785534 -0.779132 0.030503 1.602060 -1.410632 0.000000 0.000000 0.000000 0.052967 1.602123 -1.410150 -19.678866 2.847926 20.261705 -2.884410 15.081104 -14.720876 -0.000000 0.000001 0.000000 -8.451880 -5.621939 -14.376198 0.000000 0.000000 0.000000 -0.075745 -1.533864 -32.297933 42.235393 -38.238599 16.524094 -22.717011 2.721493 4.212283 7.702764 11.981704 2.047343 -2.271936 10.346038 -6.777506 -0.530361 -1.630639 -0.051318 -0.000001 0.000001 -0.000001 10.666647 -4.778029 -20.352545 0.010619 0.244541 -15.498650 0.000000 0.000001 0.000001 8.160060 -3.018658 -16.524663 0.041917 0.599029 -12.447957 0.000001 0.000002 -0.000003 7.387556 -2.161911 -15.340881 -0.036747 0.192300 -10.886799 0.000000 -0.000001 -0.000001 6.154518 -1.190081 -11.592643 0.003679 0.154456 -10.790913 -0.000000 -0.000000 -0.000001 -1.838003 15.913861 -17.234358 0.000000 0.000000 0.000000 -61.208624 13.459267 13.486399 111.295528 139.193463 -126.470132 -13.055761 19.376685 10.856544 1.302485 -1.793404 0.752532 -3.461110 -7.778556 7.899740 -7.223418 17.713882 9.587576 -0.000000 0.000003 -0.000001 10.560496 6.834452 26.258662 -0.005027 -0.270961 18.813688 -0.000001 -0.000001 -0.000001 6.734495 3.630414 28.949245 0.144537 -0.603029 21.917401 0.000000 -0.000003 0.000002 4.449674 0.905847 36.260347 -0.000540 -0.257387 25.307377 -0.000000 -0.000002 -0.000000 2.154129 -2.026309 43.046728 0.080092 -0.205654 30.188200 0.000000 -0.000001 -0.000000 -24.524132 7.565663 11.685272 15.168394 -6.604805 3.198563 6.731409 -2.793488 -17.253490 -0.321644 1.048718 0.978174 -0.000000 -0.000002 0.000000 -15.917807 -4.887534 -16.627745 26.016271 -10.270003 -8.913953 -7.991460 -4.868792 22.128732 -2.157550 -0.960792 -1.044612 -0.000000 0.000001 0.000000 
-1.106438 96.307693 -2.532806 2.078232 -47.662300 5.559469 7.161590 0.796682 -0.723433 0.381790 1.616026 -1.339484 0.000000 0.000000 0.000000 0.404245 1.616078 -1.339005 -20.090180 4.892748 20.079761 -2.370498 16.634116 -14.025589 -0.000002 -0.000000 0.000001 -8.350766 -5.895216 -13.889797 0.000000 0.000000 0.000000 -0.307276 -1.191916 -32.855539 41.504874 -38.584627 16.501865 -21.860756 2.062533 4.067426 7.595151 11.572949 2.139292 -2.203546 10.479044 -6.705549 -0.511604 -1.591987 -0.013280 -0.000001 -0.000000 -0.000002 10.817049 -4.496427 -20.333340 0.009944 0.245473 -15.754680 0.000000 0.000002 0.000001 8.192543 -2.786678 -16.693595 0.044387 0.601057 -12.787682 0.000001 -0.000001 0.000000 7.364240 -1.930031 -15.779277 -0.036706 0.194724 -11.318093 0.000000 0.000002 -0.000002 5.974179 -0.935451 -12.117710 0.006729 0.157880 -11.523788 0.000000 -0.000000 -0.000000 -2.473712 16.306119 -13.905140 0.000000 0.000000 0.000000 -56.841265 14.356175 13.304789 109.584306 135.172285 -124.529348 -12.518405 18.763426 11.455890 1.709471 -2.341674 0.715090 -3.375385 -7.937546 7.810762 -6.962809 17.230489 9.225997 -0.000002 0.000001 0.000000 10.848330 6.547873 27.989736 -0.004349 -0.273184 20.162278 -0.000000 -0.000001 -0.000000 6.739374 3.239579 30.352299 0.154415 -0.605506 23.251904 0.000001 0.000001 0.000001 4.297164 0.478137 37.613640 0.001104 -0.262410 26.447628 0.000000 0.000000 -0.000000 1.767432 -2.429468 44.218368 0.085094 -0.207504 31.316370 0.000000 0.000002 0.000000 -25.393989 7.550223 11.957813 16.509759 -5.910425 2.832026 6.394018 -2.760717 -17.002873 -0.279852 1.051714 0.914549 -0.000000 0.000002 0.000000 -17.189715 -4.426444 -16.892233 26.931018 -9.459953 -9.154262 -7.875517 -4.700460 22.224727 -2.001209 -0.963184 -1.060736 -0.000000 0.000002 0.000000 
-0.565475 96.065109 -2.598053 2.203843 -48.571862 5.806028 7.352638 0.812978 -0.677146 0.763979 1.639952 -1.283004 0.000000 0.000000 0.000000 0.786438 1.639997 -1.282523 -20.503108 6.813968 19.831234 -2.096544 18.094453 -13.398016 0.000000 -0.000001 -0.000000 -8.246967 -6.260966 -13.419145 0.000000 0.000000 0.000000 -0.679680 -0.986886 -33.318694 40.457400 -38.710056 16.172993 -20.972219 1.369089 4.115985 7.480500 11.150437 2.239058 -2.132365 10.617762 -6.630731 -0.491889 -1.551743 0.026005 -0.000000 -0.000001 -0.000000 10.963099 -4.257748 -20.259280 0.009290 0.246275 -15.968555 0.000001 0.000001 -0.000001 8.225067 -2.576067 -16.836380 0.046843 0.602927 -13.107397 0.000000 -0.000001 0.000000 7.342096 -1.700547 -16.217782 -0.036486 0.197044 -11.749660 -0.000001 0.000001 -0.000002 5.790097 -0.658145 -12.664007 0.010087 0.161479 -12.288146 0.000000 0.000001 0.000001 -3.097944 16.714830 -10.628246 0.000000 0.000000 0.000000 -52.210410 15.138923 12.803052 107.741514 132.112374 -122.878710 -12.278757 18.201483 12.455127 2.089344 -2.869961 0.562153 -3.286969 -8.102070 7.719183 -6.696966 16.729457 8.856286 0.000000 0.000001 -0.000004 11.119832 6.284689 29.143167 -0.004318 -0.275404 21.211306 -0.000000 -0.000001 -0.000000 6.763705 2.868418 31.235835 0.162843 -0.606396 24.281169 0.000001 -0.000001 -0.000000 4.183349 0.042368 38.447896 0.002777 -0.264811 27.274127 -0.000001 -0.000000 0.000001 1.441237 -2.870879 44.873407 0.089327 -0.207984 32.143519 -0.000002 -0.000002 0.000001 -26.249698 7.538969 12.218194 17.812303 -5.234666 2.489196 6.072818 -2.740384 -16.742107 -0.276117 1.054354 0.922571 -0.000000 -0.000000 0.000000 -18.511039 -3.999727 -17.290429 27.936857 -8.592638 -9.155898 -7.804879 -4.499138 22.208990 -1.907530 -0.964702 -1.079011 -0.000000 0.000000 0.000000 
